<mxfile host="app.diagrams.net" modified="2021-03-09T09:53:10.468Z" agent="5.0 (Windows NT 10.0; Win64; x64) AppleWebKit/537.36 (KHTML, like Gecko) Chrome/89.0.4389.82 Safari/537.36" etag="sx8iplk_AC0rWJodek85" version="14.4.4" type="github">
  <diagram name="Page-1" id="b520641d-4fe3-3701-9064-5fc419738815">
    <mxGraphModel dx="1422" dy="794" grid="1" gridSize="10" guides="1" tooltips="1" connect="1" arrows="1" fold="1" page="1" pageScale="1" pageWidth="1100" pageHeight="850" background="#ffffff" math="0" shadow="0">
      <root>
        <mxCell id="0" />
        <mxCell id="1" parent="0" />
        <mxCell id="21ea969265ad0168-10" value="AvailableBalanceCalculator" style="swimlane;html=1;fontStyle=0;childLayout=stackLayout;horizontal=1;startSize=26;fillColor=#e0e0e0;horizontalStack=0;resizeParent=1;resizeLast=0;collapsible=1;marginBottom=0;swimlaneFillColor=#ffffff;align=center;rounded=1;shadow=0;comic=0;labelBackgroundColor=none;strokeWidth=1;fontFamily=Verdana;fontSize=12" parent="1" vertex="1">
          <mxGeometry x="395" y="250" width="230" height="110" as="geometry" />
        </mxCell>
        <mxCell id="21ea969265ad0168-12" value="- stringTransactionDate: String" style="text;html=1;strokeColor=none;fillColor=none;spacingLeft=4;spacingRight=4;whiteSpace=wrap;overflow=hidden;rotatable=0;points=[[0,0.5],[1,0.5]];portConstraint=eastwest;" parent="21ea969265ad0168-10" vertex="1">
          <mxGeometry y="26" width="230" height="26" as="geometry" />
        </mxCell>
        <mxCell id="21ea969265ad0168-52" value="- account: Account" style="text;html=1;strokeColor=none;fillColor=none;spacingLeft=4;spacingRight=4;whiteSpace=wrap;overflow=hidden;rotatable=0;points=[[0,0.5],[1,0.5]];portConstraint=eastwest;" parent="21ea969265ad0168-10" vertex="1">
          <mxGeometry y="52" width="230" height="26" as="geometry" />
        </mxCell>
        <mxCell id="21ea969265ad0168-13" value="+ calculateAvailableBalance(): double" style="text;html=1;strokeColor=none;fillColor=none;spacingLeft=4;spacingRight=4;whiteSpace=wrap;overflow=hidden;rotatable=0;points=[[0,0.5],[1,0.5]];portConstraint=eastwest;" parent="21ea969265ad0168-10" vertex="1">
          <mxGeometry y="78" width="230" height="32" as="geometry" />
        </mxCell>
        <mxCell id="eXmw_8-DnYwRp7ZnmwKu-10" value="" style="endArrow=none;html=1;entryX=1;entryY=0.064;entryDx=0;entryDy=0;entryPerimeter=0;" parent="21ea969265ad0168-10" target="21ea969265ad0168-13" edge="1">
          <mxGeometry width="50" height="50" relative="1" as="geometry">
            <mxPoint y="79" as="sourcePoint" />
            <mxPoint x="-40" y="96" as="targetPoint" />
          </mxGeometry>
        </mxCell>
        <mxCell id="21ea969265ad0168-14" value="Client" style="swimlane;html=1;fontStyle=0;childLayout=stackLayout;horizontal=1;startSize=26;fillColor=#e0e0e0;horizontalStack=0;resizeParent=1;resizeLast=0;collapsible=1;marginBottom=0;swimlaneFillColor=#ffffff;align=center;rounded=1;shadow=0;comic=0;labelBackgroundColor=none;strokeWidth=1;fontFamily=Verdana;fontSize=12" parent="1" vertex="1">
          <mxGeometry x="130" y="410" width="160" height="340" as="geometry" />
        </mxCell>
        <mxCell id="21ea969265ad0168-15" value="- clientId: int" style="text;html=1;strokeColor=none;fillColor=none;spacingLeft=4;spacingRight=4;whiteSpace=wrap;overflow=hidden;rotatable=0;points=[[0,0.5],[1,0.5]];portConstraint=eastwest;" parent="21ea969265ad0168-14" vertex="1">
          <mxGeometry y="26" width="160" height="26" as="geometry" />
        </mxCell>
        <mxCell id="21ea969265ad0168-16" value="- firstName: String" style="text;html=1;strokeColor=none;fillColor=none;spacingLeft=4;spacingRight=4;whiteSpace=wrap;overflow=hidden;rotatable=0;points=[[0,0.5],[1,0.5]];portConstraint=eastwest;" parent="21ea969265ad0168-14" vertex="1">
          <mxGeometry y="52" width="160" height="26" as="geometry" />
        </mxCell>
        <mxCell id="21ea969265ad0168-17" value="- lastName: String" style="text;html=1;strokeColor=none;fillColor=none;spacingLeft=4;spacingRight=4;whiteSpace=wrap;overflow=hidden;rotatable=0;points=[[0,0.5],[1,0.5]];portConstraint=eastwest;" parent="21ea969265ad0168-14" vertex="1">
          <mxGeometry y="78" width="160" height="26" as="geometry" />
        </mxCell>
        <mxCell id="eXmw_8-DnYwRp7ZnmwKu-26" value="- username: String" style="text;html=1;strokeColor=none;fillColor=none;spacingLeft=4;spacingRight=4;whiteSpace=wrap;overflow=hidden;rotatable=0;points=[[0,0.5],[1,0.5]];portConstraint=eastwest;" parent="21ea969265ad0168-14" vertex="1">
          <mxGeometry y="104" width="160" height="26" as="geometry" />
        </mxCell>
        <mxCell id="eXmw_8-DnYwRp7ZnmwKu-27" value="- password: String" style="text;html=1;strokeColor=none;fillColor=none;spacingLeft=4;spacingRight=4;whiteSpace=wrap;overflow=hidden;rotatable=0;points=[[0,0.5],[1,0.5]];portConstraint=eastwest;" parent="21ea969265ad0168-14" vertex="1">
          <mxGeometry y="130" width="160" height="26" as="geometry" />
        </mxCell>
        <mxCell id="eXmw_8-DnYwRp7ZnmwKu-28" value="- email: String" style="text;html=1;strokeColor=none;fillColor=none;spacingLeft=4;spacingRight=4;whiteSpace=wrap;overflow=hidden;rotatable=0;points=[[0,0.5],[1,0.5]];portConstraint=eastwest;" parent="21ea969265ad0168-14" vertex="1">
          <mxGeometry y="156" width="160" height="26" as="geometry" />
        </mxCell>
        <mxCell id="eXmw_8-DnYwRp7ZnmwKu-29" value="- address: String" style="text;html=1;strokeColor=none;fillColor=none;spacingLeft=4;spacingRight=4;whiteSpace=wrap;overflow=hidden;rotatable=0;points=[[0,0.5],[1,0.5]];portConstraint=eastwest;" parent="21ea969265ad0168-14" vertex="1">
          <mxGeometry y="182" width="160" height="26" as="geometry" />
        </mxCell>
        <mxCell id="eXmw_8-DnYwRp7ZnmwKu-30" value="- city: String" style="text;html=1;strokeColor=none;fillColor=none;spacingLeft=4;spacingRight=4;whiteSpace=wrap;overflow=hidden;rotatable=0;points=[[0,0.5],[1,0.5]];portConstraint=eastwest;" parent="21ea969265ad0168-14" vertex="1">
          <mxGeometry y="208" width="160" height="26" as="geometry" />
        </mxCell>
        <mxCell id="eXmw_8-DnYwRp7ZnmwKu-31" value="- zipCode: String" style="text;html=1;strokeColor=none;fillColor=none;spacingLeft=4;spacingRight=4;whiteSpace=wrap;overflow=hidden;rotatable=0;points=[[0,0.5],[1,0.5]];portConstraint=eastwest;" parent="21ea969265ad0168-14" vertex="1">
          <mxGeometry y="234" width="160" height="26" as="geometry" />
        </mxCell>
        <mxCell id="eXmw_8-DnYwRp7ZnmwKu-32" value="- phone: String" style="text;html=1;strokeColor=none;fillColor=none;spacingLeft=4;spacingRight=4;whiteSpace=wrap;overflow=hidden;rotatable=0;points=[[0,0.5],[1,0.5]];portConstraint=eastwest;" parent="21ea969265ad0168-14" vertex="1">
          <mxGeometry y="260" width="160" height="26" as="geometry" />
        </mxCell>
        <mxCell id="eXmw_8-DnYwRp7ZnmwKu-33" value="+ getters(): DataType" style="text;html=1;strokeColor=none;fillColor=none;spacingLeft=4;spacingRight=4;whiteSpace=wrap;overflow=hidden;rotatable=0;points=[[0,0.5],[1,0.5]];portConstraint=eastwest;" parent="21ea969265ad0168-14" vertex="1">
          <mxGeometry y="286" width="160" height="26" as="geometry" />
        </mxCell>
        <mxCell id="eXmw_8-DnYwRp7ZnmwKu-34" value="+ setters(): void" style="text;html=1;strokeColor=none;fillColor=none;spacingLeft=4;spacingRight=4;whiteSpace=wrap;overflow=hidden;rotatable=0;points=[[0,0.5],[1,0.5]];portConstraint=eastwest;" parent="21ea969265ad0168-14" vertex="1">
          <mxGeometry y="312" width="160" height="26" as="geometry" />
        </mxCell>
        <mxCell id="eXmw_8-DnYwRp7ZnmwKu-35" value="" style="endArrow=none;html=1;exitX=0.002;exitY=-0.038;exitDx=0;exitDy=0;exitPerimeter=0;entryX=1;entryY=-0.038;entryDx=0;entryDy=0;entryPerimeter=0;" parent="21ea969265ad0168-14" source="eXmw_8-DnYwRp7ZnmwKu-33" target="eXmw_8-DnYwRp7ZnmwKu-33" edge="1">
          <mxGeometry width="50" height="50" relative="1" as="geometry">
            <mxPoint x="360" y="310" as="sourcePoint" />
            <mxPoint x="410" y="260" as="targetPoint" />
          </mxGeometry>
        </mxCell>
        <mxCell id="21ea969265ad0168-18" value="ClientDatabaseUtil" style="swimlane;html=1;fontStyle=0;childLayout=stackLayout;horizontal=1;startSize=26;fillColor=#e0e0e0;horizontalStack=0;resizeParent=1;resizeLast=0;collapsible=1;marginBottom=0;swimlaneFillColor=#ffffff;align=center;rounded=1;shadow=0;comic=0;labelBackgroundColor=none;strokeWidth=1;fontFamily=Verdana;fontSize=12" parent="1" vertex="1">
          <mxGeometry x="130" y="810" width="160" height="210" as="geometry" />
        </mxCell>
        <mxCell id="21ea969265ad0168-19" value="+ addClient(): void" style="text;html=1;strokeColor=none;fillColor=none;spacingLeft=4;spacingRight=4;whiteSpace=wrap;overflow=hidden;rotatable=0;points=[[0,0.5],[1,0.5]];portConstraint=eastwest;" parent="21ea969265ad0168-18" vertex="1">
          <mxGeometry y="26" width="160" height="26" as="geometry" />
        </mxCell>
        <mxCell id="21ea969265ad0168-20" value="+ getId(): int" style="text;html=1;strokeColor=none;fillColor=none;spacingLeft=4;spacingRight=4;whiteSpace=wrap;overflow=hidden;rotatable=0;points=[[0,0.5],[1,0.5]];portConstraint=eastwest;" parent="21ea969265ad0168-18" vertex="1">
          <mxGeometry y="52" width="160" height="26" as="geometry" />
        </mxCell>
        <mxCell id="21ea969265ad0168-51" value="+ getUsername(): String" style="text;html=1;strokeColor=none;fillColor=none;spacingLeft=4;spacingRight=4;whiteSpace=wrap;overflow=hidden;rotatable=0;points=[[0,0.5],[1,0.5]];portConstraint=eastwest;" parent="21ea969265ad0168-18" vertex="1">
          <mxGeometry y="78" width="160" height="26" as="geometry" />
        </mxCell>
        <mxCell id="21ea969265ad0168-21" value="+ getPassword(): String" style="text;html=1;strokeColor=none;fillColor=none;spacingLeft=4;spacingRight=4;whiteSpace=wrap;overflow=hidden;rotatable=0;points=[[0,0.5],[1,0.5]];portConstraint=eastwest;" parent="21ea969265ad0168-18" vertex="1">
          <mxGeometry y="104" width="160" height="26" as="geometry" />
        </mxCell>
        <mxCell id="eXmw_8-DnYwRp7ZnmwKu-23" value="+ setPassword(): String" style="text;html=1;strokeColor=none;fillColor=none;spacingLeft=4;spacingRight=4;whiteSpace=wrap;overflow=hidden;rotatable=0;points=[[0,0.5],[1,0.5]];portConstraint=eastwest;" parent="21ea969265ad0168-18" vertex="1">
          <mxGeometry y="130" width="160" height="26" as="geometry" />
        </mxCell>
        <mxCell id="eXmw_8-DnYwRp7ZnmwKu-24" value="+ isCorrectEmail(): boolean" style="text;html=1;strokeColor=none;fillColor=none;spacingLeft=4;spacingRight=4;whiteSpace=wrap;overflow=hidden;rotatable=0;points=[[0,0.5],[1,0.5]];portConstraint=eastwest;" parent="21ea969265ad0168-18" vertex="1">
          <mxGeometry y="156" width="160" height="26" as="geometry" />
        </mxCell>
        <mxCell id="eXmw_8-DnYwRp7ZnmwKu-25" value="+ isValidAccount(): boolean" style="text;html=1;strokeColor=none;fillColor=none;spacingLeft=4;spacingRight=4;whiteSpace=wrap;overflow=hidden;rotatable=0;points=[[0,0.5],[1,0.5]];portConstraint=eastwest;" parent="21ea969265ad0168-18" vertex="1">
          <mxGeometry y="182" width="160" height="26" as="geometry" />
        </mxCell>
        <mxCell id="21ea969265ad0168-22" value="Account" style="swimlane;html=1;fontStyle=0;childLayout=stackLayout;horizontal=1;startSize=26;fillColor=#e0e0e0;horizontalStack=0;resizeParent=1;resizeLast=0;collapsible=1;marginBottom=0;swimlaneFillColor=#ffffff;align=center;rounded=1;shadow=0;comic=0;labelBackgroundColor=none;strokeWidth=1;fontFamily=Verdana;fontSize=12" parent="1" vertex="1">
          <mxGeometry x="429.13" y="450" width="160" height="208" as="geometry" />
        </mxCell>
        <mxCell id="21ea969265ad0168-23" value="- clientId: int" style="text;html=1;strokeColor=none;fillColor=none;spacingLeft=4;spacingRight=4;whiteSpace=wrap;overflow=hidden;rotatable=0;points=[[0,0.5],[1,0.5]];portConstraint=eastwest;" parent="21ea969265ad0168-22" vertex="1">
          <mxGeometry y="26" width="160" height="26" as="geometry" />
        </mxCell>
        <mxCell id="21ea969265ad0168-24" value="- currencyTypeId: int" style="text;html=1;strokeColor=none;fillColor=none;spacingLeft=4;spacingRight=4;whiteSpace=wrap;overflow=hidden;rotatable=0;points=[[0,0.5],[1,0.5]];portConstraint=eastwest;" parent="21ea969265ad0168-22" vertex="1">
          <mxGeometry y="52" width="160" height="26" as="geometry" />
        </mxCell>
        <mxCell id="eXmw_8-DnYwRp7ZnmwKu-3" value="- currencyBalance: double" style="text;html=1;strokeColor=none;fillColor=none;spacingLeft=4;spacingRight=4;whiteSpace=wrap;overflow=hidden;rotatable=0;points=[[0,0.5],[1,0.5]];portConstraint=eastwest;" parent="21ea969265ad0168-22" vertex="1">
          <mxGeometry y="78" width="160" height="26" as="geometry" />
        </mxCell>
        <mxCell id="eXmw_8-DnYwRp7ZnmwKu-4" value="- dailyLimit: double" style="text;html=1;strokeColor=none;fillColor=none;spacingLeft=4;spacingRight=4;whiteSpace=wrap;overflow=hidden;rotatable=0;points=[[0,0.5],[1,0.5]];portConstraint=eastwest;" parent="21ea969265ad0168-22" vertex="1">
          <mxGeometry y="104" width="160" height="26" as="geometry" />
        </mxCell>
        <mxCell id="eXmw_8-DnYwRp7ZnmwKu-2" value="" style="endArrow=none;html=1;" parent="21ea969265ad0168-22" edge="1">
          <mxGeometry width="50" height="50" relative="1" as="geometry">
            <mxPoint y="130" as="sourcePoint" />
            <mxPoint x="160" y="130" as="targetPoint" />
          </mxGeometry>
        </mxCell>
        <mxCell id="eXmw_8-DnYwRp7ZnmwKu-88" value="+ getters(): DataType" style="text;html=1;strokeColor=none;fillColor=none;spacingLeft=4;spacingRight=4;whiteSpace=wrap;overflow=hidden;rotatable=0;points=[[0,0.5],[1,0.5]];portConstraint=eastwest;" parent="21ea969265ad0168-22" vertex="1">
          <mxGeometry y="130" width="160" height="26" as="geometry" />
        </mxCell>
        <mxCell id="eXmw_8-DnYwRp7ZnmwKu-7" value="+ getters(): DataType" style="text;html=1;strokeColor=none;fillColor=none;spacingLeft=4;spacingRight=4;whiteSpace=wrap;overflow=hidden;rotatable=0;points=[[0,0.5],[1,0.5]];portConstraint=eastwest;" parent="21ea969265ad0168-22" vertex="1">
          <mxGeometry y="156" width="160" height="26" as="geometry" />
        </mxCell>
        <mxCell id="eXmw_8-DnYwRp7ZnmwKu-8" value="+ setters(): void" style="text;html=1;strokeColor=none;fillColor=none;spacingLeft=4;spacingRight=4;whiteSpace=wrap;overflow=hidden;rotatable=0;points=[[0,0.5],[1,0.5]];portConstraint=eastwest;" parent="21ea969265ad0168-22" vertex="1">
          <mxGeometry y="182" width="160" height="26" as="geometry" />
        </mxCell>
        <mxCell id="21ea969265ad0168-26" value="AccountDatabaseUtil" style="swimlane;html=1;fontStyle=0;childLayout=stackLayout;horizontal=1;startSize=26;fillColor=#e0e0e0;horizontalStack=0;resizeParent=1;resizeLast=0;collapsible=1;marginBottom=0;swimlaneFillColor=#ffffff;align=center;rounded=1;shadow=0;comic=0;labelBackgroundColor=none;strokeWidth=1;fontFamily=Verdana;fontSize=12" parent="1" vertex="1">
          <mxGeometry x="407.39" y="760" width="200" height="340" as="geometry" />
        </mxCell>
        <mxCell id="21ea969265ad0168-27" value="- account: Account" style="text;html=1;strokeColor=none;fillColor=none;spacingLeft=4;spacingRight=4;whiteSpace=wrap;overflow=hidden;rotatable=0;points=[[0,0.5],[1,0.5]];portConstraint=eastwest;" parent="21ea969265ad0168-26" vertex="1">
          <mxGeometry y="26" width="200" height="26" as="geometry" />
        </mxCell>
        <mxCell id="21ea969265ad0168-28" value="+ addAccount(): void" style="text;html=1;strokeColor=none;fillColor=none;spacingLeft=4;spacingRight=4;whiteSpace=wrap;overflow=hidden;rotatable=0;points=[[0,0.5],[1,0.5]];portConstraint=eastwest;" parent="21ea969265ad0168-26" vertex="1">
          <mxGeometry y="52" width="200" height="26" as="geometry" />
        </mxCell>
        <mxCell id="21ea969265ad0168-29" value="+ getBalance(): double" style="text;html=1;strokeColor=none;fillColor=none;spacingLeft=4;spacingRight=4;whiteSpace=wrap;overflow=hidden;rotatable=0;points=[[0,0.5],[1,0.5]];portConstraint=eastwest;" parent="21ea969265ad0168-26" vertex="1">
          <mxGeometry y="78" width="200" height="26" as="geometry" />
        </mxCell>
        <mxCell id="eXmw_8-DnYwRp7ZnmwKu-11" value="+ updateBalance(): void" style="text;html=1;strokeColor=none;fillColor=none;spacingLeft=4;spacingRight=4;whiteSpace=wrap;overflow=hidden;rotatable=0;points=[[0,0.5],[1,0.5]];portConstraint=eastwest;" parent="21ea969265ad0168-26" vertex="1">
          <mxGeometry y="104" width="200" height="26" as="geometry" />
        </mxCell>
        <mxCell id="eXmw_8-DnYwRp7ZnmwKu-12" value="+ getDailyLimit(): double" style="text;html=1;strokeColor=none;fillColor=none;spacingLeft=4;spacingRight=4;whiteSpace=wrap;overflow=hidden;rotatable=0;points=[[0,0.5],[1,0.5]];portConstraint=eastwest;" parent="21ea969265ad0168-26" vertex="1">
          <mxGeometry y="130" width="200" height="26" as="geometry" />
        </mxCell>
        <mxCell id="eXmw_8-DnYwRp7ZnmwKu-13" value="+ setDailyLimit(): void" style="text;html=1;strokeColor=none;fillColor=none;spacingLeft=4;spacingRight=4;whiteSpace=wrap;overflow=hidden;rotatable=0;points=[[0,0.5],[1,0.5]];portConstraint=eastwest;" parent="21ea969265ad0168-26" vertex="1">
          <mxGeometry y="156" width="200" height="26" as="geometry" />
        </mxCell>
        <mxCell id="eXmw_8-DnYwRp7ZnmwKu-16" value="+ existsAccount(): boolean" style="text;html=1;strokeColor=none;fillColor=none;spacingLeft=4;spacingRight=4;whiteSpace=wrap;overflow=hidden;rotatable=0;points=[[0,0.5],[1,0.5]];portConstraint=eastwest;" parent="21ea969265ad0168-26" vertex="1">
          <mxGeometry y="182" width="200" height="26" as="geometry" />
        </mxCell>
        <mxCell id="eXmw_8-DnYwRp7ZnmwKu-17" value="+ isEnoughBalance(): boolean" style="text;html=1;strokeColor=none;fillColor=none;spacingLeft=4;spacingRight=4;whiteSpace=wrap;overflow=hidden;rotatable=0;points=[[0,0.5],[1,0.5]];portConstraint=eastwest;" parent="21ea969265ad0168-26" vertex="1">
          <mxGeometry y="208" width="200" height="26" as="geometry" />
        </mxCell>
        <mxCell id="eXmw_8-DnYwRp7ZnmwKu-18" value="+ isValidAmount(): boolean" style="text;html=1;strokeColor=none;fillColor=none;spacingLeft=4;spacingRight=4;whiteSpace=wrap;overflow=hidden;rotatable=0;points=[[0,0.5],[1,0.5]];portConstraint=eastwest;" parent="21ea969265ad0168-26" vertex="1">
          <mxGeometry y="234" width="200" height="26" as="geometry" />
        </mxCell>
        <mxCell id="eXmw_8-DnYwRp7ZnmwKu-19" value="+ boolean reachedLimit(): boolean" style="text;html=1;strokeColor=none;fillColor=none;spacingLeft=4;spacingRight=4;whiteSpace=wrap;overflow=hidden;rotatable=0;points=[[0,0.5],[1,0.5]];portConstraint=eastwest;" parent="21ea969265ad0168-26" vertex="1">
          <mxGeometry y="260" width="200" height="26" as="geometry" />
        </mxCell>
        <mxCell id="eXmw_8-DnYwRp7ZnmwKu-20" value="+ getAccount(): Account" style="text;html=1;strokeColor=none;fillColor=none;spacingLeft=4;spacingRight=4;whiteSpace=wrap;overflow=hidden;rotatable=0;points=[[0,0.5],[1,0.5]];portConstraint=eastwest;" parent="21ea969265ad0168-26" vertex="1">
          <mxGeometry y="286" width="200" height="26" as="geometry" />
        </mxCell>
        <mxCell id="eXmw_8-DnYwRp7ZnmwKu-21" value="+ setAccount(): void" style="text;html=1;strokeColor=none;fillColor=none;spacingLeft=4;spacingRight=4;whiteSpace=wrap;overflow=hidden;rotatable=0;points=[[0,0.5],[1,0.5]];portConstraint=eastwest;" parent="21ea969265ad0168-26" vertex="1">
          <mxGeometry y="312" width="200" height="28" as="geometry" />
        </mxCell>
        <mxCell id="eXmw_8-DnYwRp7ZnmwKu-22" value="" style="endArrow=none;html=1;entryX=0.998;entryY=-0.023;entryDx=0;entryDy=0;entryPerimeter=0;" parent="21ea969265ad0168-26" target="21ea969265ad0168-28" edge="1">
          <mxGeometry width="50" height="50" relative="1" as="geometry">
            <mxPoint x="-1" y="51" as="sourcePoint" />
            <mxPoint x="30" y="80" as="targetPoint" />
          </mxGeometry>
        </mxCell>
        <mxCell id="eXmw_8-DnYwRp7ZnmwKu-36" value="TransferTask" style="swimlane;html=1;fontStyle=0;childLayout=stackLayout;horizontal=1;startSize=26;fillColor=#e0e0e0;horizontalStack=0;resizeParent=1;resizeLast=0;collapsible=1;marginBottom=0;swimlaneFillColor=#ffffff;align=center;rounded=1;shadow=0;comic=0;labelBackgroundColor=none;strokeWidth=1;fontFamily=Verdana;fontSize=12" parent="1" vertex="1">
          <mxGeometry x="772.39" y="1110" width="200" height="290" as="geometry" />
        </mxCell>
        <mxCell id="eXmw_8-DnYwRp7ZnmwKu-37" value="- account: Account" style="text;html=1;strokeColor=none;fillColor=none;spacingLeft=4;spacingRight=4;whiteSpace=wrap;overflow=hidden;rotatable=0;points=[[0,0.5],[1,0.5]];portConstraint=eastwest;" parent="eXmw_8-DnYwRp7ZnmwKu-36" vertex="1">
          <mxGeometry y="26" width="200" height="26" as="geometry" />
        </mxCell>
        <mxCell id="eXmw_8-DnYwRp7ZnmwKu-38" value="+ addAccount(): void" style="text;html=1;strokeColor=none;fillColor=none;spacingLeft=4;spacingRight=4;whiteSpace=wrap;overflow=hidden;rotatable=0;points=[[0,0.5],[1,0.5]];portConstraint=eastwest;" parent="eXmw_8-DnYwRp7ZnmwKu-36" vertex="1">
          <mxGeometry y="52" width="200" height="26" as="geometry" />
        </mxCell>
        <mxCell id="eXmw_8-DnYwRp7ZnmwKu-39" value="+ getBalance(): double" style="text;html=1;strokeColor=none;fillColor=none;spacingLeft=4;spacingRight=4;whiteSpace=wrap;overflow=hidden;rotatable=0;points=[[0,0.5],[1,0.5]];portConstraint=eastwest;" parent="eXmw_8-DnYwRp7ZnmwKu-36" vertex="1">
          <mxGeometry y="78" width="200" height="26" as="geometry" />
        </mxCell>
        <mxCell id="eXmw_8-DnYwRp7ZnmwKu-40" value="+ updateBalance(): void" style="text;html=1;strokeColor=none;fillColor=none;spacingLeft=4;spacingRight=4;whiteSpace=wrap;overflow=hidden;rotatable=0;points=[[0,0.5],[1,0.5]];portConstraint=eastwest;" parent="eXmw_8-DnYwRp7ZnmwKu-36" vertex="1">
          <mxGeometry y="104" width="200" height="26" as="geometry" />
        </mxCell>
        <mxCell id="eXmw_8-DnYwRp7ZnmwKu-41" value="+ getDailyLimit(): double" style="text;html=1;strokeColor=none;fillColor=none;spacingLeft=4;spacingRight=4;whiteSpace=wrap;overflow=hidden;rotatable=0;points=[[0,0.5],[1,0.5]];portConstraint=eastwest;" parent="eXmw_8-DnYwRp7ZnmwKu-36" vertex="1">
          <mxGeometry y="130" width="200" height="26" as="geometry" />
        </mxCell>
        <mxCell id="eXmw_8-DnYwRp7ZnmwKu-42" value="+ setDailyLimit(): void" style="text;html=1;strokeColor=none;fillColor=none;spacingLeft=4;spacingRight=4;whiteSpace=wrap;overflow=hidden;rotatable=0;points=[[0,0.5],[1,0.5]];portConstraint=eastwest;" parent="eXmw_8-DnYwRp7ZnmwKu-36" vertex="1">
          <mxGeometry y="156" width="200" height="26" as="geometry" />
        </mxCell>
        <mxCell id="eXmw_8-DnYwRp7ZnmwKu-43" value="+ existsAccount(): boolean" style="text;html=1;strokeColor=none;fillColor=none;spacingLeft=4;spacingRight=4;whiteSpace=wrap;overflow=hidden;rotatable=0;points=[[0,0.5],[1,0.5]];portConstraint=eastwest;" parent="eXmw_8-DnYwRp7ZnmwKu-36" vertex="1">
          <mxGeometry y="182" width="200" height="26" as="geometry" />
        </mxCell>
        <mxCell id="eXmw_8-DnYwRp7ZnmwKu-44" value="+ isEnoughBalance(): boolean" style="text;html=1;strokeColor=none;fillColor=none;spacingLeft=4;spacingRight=4;whiteSpace=wrap;overflow=hidden;rotatable=0;points=[[0,0.5],[1,0.5]];portConstraint=eastwest;" parent="eXmw_8-DnYwRp7ZnmwKu-36" vertex="1">
          <mxGeometry y="208" width="200" height="26" as="geometry" />
        </mxCell>
        <mxCell id="eXmw_8-DnYwRp7ZnmwKu-45" value="+ isValidAmount(): boolean" style="text;html=1;strokeColor=none;fillColor=none;spacingLeft=4;spacingRight=4;whiteSpace=wrap;overflow=hidden;rotatable=0;points=[[0,0.5],[1,0.5]];portConstraint=eastwest;" parent="eXmw_8-DnYwRp7ZnmwKu-36" vertex="1">
          <mxGeometry y="234" width="200" height="26" as="geometry" />
        </mxCell>
        <mxCell id="eXmw_8-DnYwRp7ZnmwKu-46" value="+ boolean reachedLimit(): boolean" style="text;html=1;strokeColor=none;fillColor=none;spacingLeft=4;spacingRight=4;whiteSpace=wrap;overflow=hidden;rotatable=0;points=[[0,0.5],[1,0.5]];portConstraint=eastwest;" parent="eXmw_8-DnYwRp7ZnmwKu-36" vertex="1">
          <mxGeometry y="260" width="200" height="26" as="geometry" />
        </mxCell>
        <mxCell id="eXmw_8-DnYwRp7ZnmwKu-49" value="" style="endArrow=none;html=1;entryX=0.998;entryY=-0.023;entryDx=0;entryDy=0;entryPerimeter=0;" parent="eXmw_8-DnYwRp7ZnmwKu-36" target="eXmw_8-DnYwRp7ZnmwKu-38" edge="1">
          <mxGeometry width="50" height="50" relative="1" as="geometry">
            <mxPoint x="1" y="51" as="sourcePoint" />
            <mxPoint x="30" y="80" as="targetPoint" />
          </mxGeometry>
        </mxCell>
        <mxCell id="eXmw_8-DnYwRp7ZnmwKu-53" value="&amp;lt;&amp;lt;Abstract&amp;gt;&amp;gt;&lt;br&gt;Task" style="swimlane;html=1;fontStyle=0;childLayout=stackLayout;horizontal=1;startSize=50;fillColor=#e0e0e0;horizontalStack=0;resizeParent=1;resizeLast=0;collapsible=1;marginBottom=0;swimlaneFillColor=#ffffff;align=center;rounded=1;shadow=0;comic=0;labelBackgroundColor=none;strokeWidth=1;fontFamily=Verdana;fontSize=12" parent="1" vertex="1">
          <mxGeometry x="727.39" y="780" width="292.61" height="160" as="geometry">
            <mxRectangle x="1090" y="500" width="120" height="50" as="alternateBounds" />
          </mxGeometry>
        </mxCell>
        <mxCell id="eXmw_8-DnYwRp7ZnmwKu-54" value="- accountDatabaseUtil: AccountDatabaseUtil" style="text;html=1;strokeColor=none;fillColor=none;spacingLeft=4;spacingRight=4;whiteSpace=wrap;overflow=hidden;rotatable=0;points=[[0,0.5],[1,0.5]];portConstraint=eastwest;" parent="eXmw_8-DnYwRp7ZnmwKu-53" vertex="1">
          <mxGeometry y="50" width="292.61" height="26" as="geometry" />
        </mxCell>
        <mxCell id="eXmw_8-DnYwRp7ZnmwKu-55" value="- targetAccountDatabaseUtil: AccountDatabaseUtil" style="text;html=1;strokeColor=none;fillColor=none;spacingLeft=4;spacingRight=4;whiteSpace=wrap;overflow=hidden;rotatable=0;points=[[0,0.5],[1,0.5]];portConstraint=eastwest;" parent="eXmw_8-DnYwRp7ZnmwKu-53" vertex="1">
          <mxGeometry y="76" width="292.61" height="26" as="geometry" />
        </mxCell>
        <mxCell id="eXmw_8-DnYwRp7ZnmwKu-56" value="+ execute(): void" style="text;html=1;strokeColor=none;fillColor=none;spacingLeft=4;spacingRight=4;whiteSpace=wrap;overflow=hidden;rotatable=0;points=[[0,0.5],[1,0.5]];portConstraint=eastwest;" parent="eXmw_8-DnYwRp7ZnmwKu-53" vertex="1">
          <mxGeometry y="102" width="292.61" height="26" as="geometry" />
        </mxCell>
        <mxCell id="eXmw_8-DnYwRp7ZnmwKu-78" value="" style="endArrow=none;html=1;exitX=-0.001;exitY=0.1;exitDx=0;exitDy=0;exitPerimeter=0;entryX=1.006;entryY=0.131;entryDx=0;entryDy=0;entryPerimeter=0;" parent="eXmw_8-DnYwRp7ZnmwKu-53" source="eXmw_8-DnYwRp7ZnmwKu-56" target="eXmw_8-DnYwRp7ZnmwKu-56" edge="1">
          <mxGeometry width="50" height="50" relative="1" as="geometry">
            <mxPoint x="60" y="270" as="sourcePoint" />
            <mxPoint x="290" y="104" as="targetPoint" />
          </mxGeometry>
        </mxCell>
        <mxCell id="nUnv14A6r-LmEsx6zcBj-1" value="# doExecute(): void" style="text;html=1;strokeColor=none;fillColor=none;spacingLeft=4;spacingRight=4;whiteSpace=wrap;overflow=hidden;rotatable=0;points=[[0,0.5],[1,0.5]];portConstraint=eastwest;" vertex="1" parent="eXmw_8-DnYwRp7ZnmwKu-53">
          <mxGeometry y="128" width="292.61" height="32" as="geometry" />
        </mxCell>
        <mxCell id="eXmw_8-DnYwRp7ZnmwKu-65" value="TransactionsDatabaseUtil" style="swimlane;html=1;fontStyle=0;childLayout=stackLayout;horizontal=1;startSize=26;fillColor=#e0e0e0;horizontalStack=0;resizeParent=1;resizeLast=0;collapsible=1;marginBottom=0;swimlaneFillColor=#ffffff;align=center;rounded=1;shadow=0;comic=0;labelBackgroundColor=none;strokeWidth=1;fontFamily=Verdana;fontSize=12" parent="1" vertex="1">
          <mxGeometry x="729.13" y="474" width="290" height="160" as="geometry" />
        </mxCell>
        <mxCell id="eXmw_8-DnYwRp7ZnmwKu-66" value="- account: Account" style="text;html=1;strokeColor=none;fillColor=none;spacingLeft=4;spacingRight=4;whiteSpace=wrap;overflow=hidden;rotatable=0;points=[[0,0.5],[1,0.5]];portConstraint=eastwest;" parent="eXmw_8-DnYwRp7ZnmwKu-65" vertex="1">
          <mxGeometry y="26" width="290" height="26" as="geometry" />
        </mxCell>
        <mxCell id="eXmw_8-DnYwRp7ZnmwKu-67" value="- targetAccount: Account" style="text;html=1;strokeColor=none;fillColor=none;spacingLeft=4;spacingRight=4;whiteSpace=wrap;overflow=hidden;rotatable=0;points=[[0,0.5],[1,0.5]];portConstraint=eastwest;" parent="eXmw_8-DnYwRp7ZnmwKu-65" vertex="1">
          <mxGeometry y="52" width="290" height="26" as="geometry" />
        </mxCell>
        <mxCell id="eXmw_8-DnYwRp7ZnmwKu-68" value="- transactionDate: Date" style="text;html=1;strokeColor=none;fillColor=none;spacingLeft=4;spacingRight=4;whiteSpace=wrap;overflow=hidden;rotatable=0;points=[[0,0.5],[1,0.5]];portConstraint=eastwest;" parent="eXmw_8-DnYwRp7ZnmwKu-65" vertex="1">
          <mxGeometry y="78" width="290" height="26" as="geometry" />
        </mxCell>
        <mxCell id="eXmw_8-DnYwRp7ZnmwKu-70" value="" style="endArrow=none;html=1;exitX=0.012;exitY=1.038;exitDx=0;exitDy=0;exitPerimeter=0;entryX=1.003;entryY=0.038;entryDx=0;entryDy=0;entryPerimeter=0;" parent="eXmw_8-DnYwRp7ZnmwKu-65" source="eXmw_8-DnYwRp7ZnmwKu-68" target="eXmw_8-DnYwRp7ZnmwKu-74" edge="1">
          <mxGeometry width="50" height="50" relative="1" as="geometry">
            <mxPoint y="107" as="sourcePoint" />
            <mxPoint x="202" y="100" as="targetPoint" />
          </mxGeometry>
        </mxCell>
        <mxCell id="eXmw_8-DnYwRp7ZnmwKu-74" value="+ recordTransaction(): void" style="text;html=1;strokeColor=none;fillColor=none;spacingLeft=4;spacingRight=4;whiteSpace=wrap;overflow=hidden;rotatable=0;points=[[0,0.5],[1,0.5]];portConstraint=eastwest;" parent="eXmw_8-DnYwRp7ZnmwKu-65" vertex="1">
          <mxGeometry y="104" width="290" height="26" as="geometry" />
        </mxCell>
        <mxCell id="eXmw_8-DnYwRp7ZnmwKu-75" value="+ getTransactionRecords(): List&amp;lt;Transaction&amp;gt;" style="text;html=1;strokeColor=none;fillColor=none;spacingLeft=4;spacingRight=4;whiteSpace=wrap;overflow=hidden;rotatable=0;points=[[0,0.5],[1,0.5]];portConstraint=eastwest;" parent="eXmw_8-DnYwRp7ZnmwKu-65" vertex="1">
          <mxGeometry y="130" width="290" height="26" as="geometry" />
        </mxCell>
        <mxCell id="eXmw_8-DnYwRp7ZnmwKu-76" value="Extends" style="endArrow=block;endSize=16;endFill=0;html=1;exitX=0.5;exitY=0;exitDx=0;exitDy=0;entryX=0.5;entryY=1;entryDx=0;entryDy=0;" parent="1" source="eXmw_8-DnYwRp7ZnmwKu-36" target="eXmw_8-DnYwRp7ZnmwKu-53" edge="1">
          <mxGeometry width="160" relative="1" as="geometry">
            <mxPoint x="837.39" y="1000" as="sourcePoint" />
            <mxPoint x="997.3900000000001" y="1000" as="targetPoint" />
          </mxGeometry>
        </mxCell>
        <mxCell id="eXmw_8-DnYwRp7ZnmwKu-79" value="1" style="endArrow=open;html=1;endSize=12;startArrow=diamondThin;startSize=14;startFill=1;edgeStyle=orthogonalEdgeStyle;align=left;verticalAlign=bottom;" parent="1" edge="1">
          <mxGeometry x="-0.1645" y="7" relative="1" as="geometry">
            <mxPoint x="767.39" y="1243" as="sourcePoint" />
            <mxPoint x="507.39" y="1100" as="targetPoint" />
            <Array as="points">
              <mxPoint x="507.39" y="1243" />
            </Array>
            <mxPoint as="offset" />
          </mxGeometry>
        </mxCell>
        <mxCell id="eXmw_8-DnYwRp7ZnmwKu-80" value="2" style="endArrow=open;html=1;endSize=12;startArrow=diamondThin;startSize=14;startFill=1;edgeStyle=orthogonalEdgeStyle;align=left;verticalAlign=bottom;entryX=1.017;entryY=0.1;entryDx=0;entryDy=0;entryPerimeter=0;" parent="1" target="eXmw_8-DnYwRp7ZnmwKu-4" edge="1">
          <mxGeometry x="0.2423" y="10" relative="1" as="geometry">
            <mxPoint x="709.13" y="557" as="sourcePoint" />
            <mxPoint x="679.13" y="624" as="targetPoint" />
            <Array as="points">
              <mxPoint x="726.13" y="557" />
            </Array>
            <mxPoint as="offset" />
          </mxGeometry>
        </mxCell>
        <mxCell id="eXmw_8-DnYwRp7ZnmwKu-83" value="1" style="endArrow=open;html=1;endSize=12;startArrow=diamondThin;startSize=14;startFill=1;edgeStyle=orthogonalEdgeStyle;align=left;verticalAlign=bottom;entryX=0.483;entryY=1.008;entryDx=0;entryDy=0;entryPerimeter=0;" parent="1" target="eXmw_8-DnYwRp7ZnmwKu-8" edge="1">
          <mxGeometry x="0.0033" y="7" relative="1" as="geometry">
            <mxPoint x="506.89" y="760" as="sourcePoint" />
            <mxPoint x="506.89" y="670" as="targetPoint" />
            <Array as="points" />
            <mxPoint as="offset" />
          </mxGeometry>
        </mxCell>
        <mxCell id="eXmw_8-DnYwRp7ZnmwKu-85" value="1" style="endArrow=open;html=1;endSize=12;startArrow=diamondThin;startSize=14;startFill=1;edgeStyle=orthogonalEdgeStyle;align=left;verticalAlign=bottom;entryX=0.5;entryY=0;entryDx=0;entryDy=0;" parent="1" target="21ea969265ad0168-22" edge="1">
          <mxGeometry x="0.1216" y="-19" relative="1" as="geometry">
            <mxPoint x="509" y="359" as="sourcePoint" />
            <mxPoint x="506.89" y="440" as="targetPoint" />
            <mxPoint as="offset" />
          </mxGeometry>
        </mxCell>
        <mxCell id="eXmw_8-DnYwRp7ZnmwKu-86" value="1" style="endArrow=open;html=1;endSize=12;startArrow=diamondThin;startSize=14;startFill=1;edgeStyle=orthogonalEdgeStyle;align=left;verticalAlign=bottom;" parent="1" edge="1">
          <mxGeometry x="-0.3333" relative="1" as="geometry">
            <mxPoint x="209.5" y="810" as="sourcePoint" />
            <mxPoint x="210" y="750" as="targetPoint" />
            <Array as="points">
              <mxPoint x="209.5" y="770" />
              <mxPoint x="209.5" y="770" />
            </Array>
            <mxPoint as="offset" />
          </mxGeometry>
        </mxCell>
        <mxCell id="eXmw_8-DnYwRp7ZnmwKu-87" value="1..*" style="endArrow=open;html=1;endSize=12;startArrow=diamondThin;startSize=14;startFill=1;edgeStyle=orthogonalEdgeStyle;align=left;verticalAlign=bottom;" parent="1" edge="1">
          <mxGeometry x="-0.1375" y="-6" relative="1" as="geometry">
            <mxPoint x="290" y="554" as="sourcePoint" />
            <mxPoint x="429.13" y="553.5" as="targetPoint" />
            <Array as="points">
              <mxPoint x="360" y="554" />
            </Array>
            <mxPoint as="offset" />
          </mxGeometry>
        </mxCell>
        <mxCell id="eXmw_8-DnYwRp7ZnmwKu-89" value="Transaction" style="swimlane;html=1;fontStyle=0;childLayout=stackLayout;horizontal=1;startSize=26;fillColor=#e0e0e0;horizontalStack=0;resizeParent=1;resizeLast=0;collapsible=1;marginBottom=0;swimlaneFillColor=#ffffff;align=center;rounded=1;shadow=0;comic=0;labelBackgroundColor=none;strokeWidth=1;fontFamily=Verdana;fontSize=12" parent="1" vertex="1">
          <mxGeometry x="772.39" y="90" width="187.61" height="290" as="geometry" />
        </mxCell>
        <mxCell id="eXmw_8-DnYwRp7ZnmwKu-90" value="- transactionDate: Date" style="text;html=1;strokeColor=none;fillColor=none;spacingLeft=4;spacingRight=4;whiteSpace=wrap;overflow=hidden;rotatable=0;points=[[0,0.5],[1,0.5]];portConstraint=eastwest;" parent="eXmw_8-DnYwRp7ZnmwKu-89" vertex="1">
          <mxGeometry y="26" width="187.61" height="26" as="geometry" />
        </mxCell>
        <mxCell id="eXmw_8-DnYwRp7ZnmwKu-91" value="- transactionAmount: String" style="text;html=1;strokeColor=none;fillColor=none;spacingLeft=4;spacingRight=4;whiteSpace=wrap;overflow=hidden;rotatable=0;points=[[0,0.5],[1,0.5]];portConstraint=eastwest;" parent="eXmw_8-DnYwRp7ZnmwKu-89" vertex="1">
          <mxGeometry y="52" width="187.61" height="26" as="geometry" />
        </mxCell>
        <mxCell id="eXmw_8-DnYwRp7ZnmwKu-95" value="- clientId: int" style="text;html=1;strokeColor=none;fillColor=none;spacingLeft=4;spacingRight=4;whiteSpace=wrap;overflow=hidden;rotatable=0;points=[[0,0.5],[1,0.5]];portConstraint=eastwest;" parent="eXmw_8-DnYwRp7ZnmwKu-89" vertex="1">
          <mxGeometry y="78" width="187.61" height="26" as="geometry" />
        </mxCell>
        <mxCell id="eXmw_8-DnYwRp7ZnmwKu-96" value="- clientEmail: String" style="text;html=1;strokeColor=none;fillColor=none;spacingLeft=4;spacingRight=4;whiteSpace=wrap;overflow=hidden;rotatable=0;points=[[0,0.5],[1,0.5]];portConstraint=eastwest;" parent="eXmw_8-DnYwRp7ZnmwKu-89" vertex="1">
          <mxGeometry y="104" width="187.61" height="26" as="geometry" />
        </mxCell>
        <mxCell id="eXmw_8-DnYwRp7ZnmwKu-97" value="- targetId: int" style="text;html=1;strokeColor=none;fillColor=none;spacingLeft=4;spacingRight=4;whiteSpace=wrap;overflow=hidden;rotatable=0;points=[[0,0.5],[1,0.5]];portConstraint=eastwest;" parent="eXmw_8-DnYwRp7ZnmwKu-89" vertex="1">
          <mxGeometry y="130" width="187.61" height="26" as="geometry" />
        </mxCell>
        <mxCell id="eXmw_8-DnYwRp7ZnmwKu-98" value="- targetEmai: String" style="text;html=1;strokeColor=none;fillColor=none;spacingLeft=4;spacingRight=4;whiteSpace=wrap;overflow=hidden;rotatable=0;points=[[0,0.5],[1,0.5]];portConstraint=eastwest;" parent="eXmw_8-DnYwRp7ZnmwKu-89" vertex="1">
          <mxGeometry y="156" width="187.61" height="26" as="geometry" />
        </mxCell>
        <mxCell id="eXmw_8-DnYwRp7ZnmwKu-99" value="- currencyTypeId: int" style="text;html=1;strokeColor=none;fillColor=none;spacingLeft=4;spacingRight=4;whiteSpace=wrap;overflow=hidden;rotatable=0;points=[[0,0.5],[1,0.5]];portConstraint=eastwest;" parent="eXmw_8-DnYwRp7ZnmwKu-89" vertex="1">
          <mxGeometry y="182" width="187.61" height="26" as="geometry" />
        </mxCell>
        <mxCell id="eXmw_8-DnYwRp7ZnmwKu-100" value="- currencyName: String" style="text;html=1;strokeColor=none;fillColor=none;spacingLeft=4;spacingRight=4;whiteSpace=wrap;overflow=hidden;rotatable=0;points=[[0,0.5],[1,0.5]];portConstraint=eastwest;" parent="eXmw_8-DnYwRp7ZnmwKu-89" vertex="1">
          <mxGeometry y="208" width="187.61" height="26" as="geometry" />
        </mxCell>
        <mxCell id="eXmw_8-DnYwRp7ZnmwKu-101" value="+ getters(): DataType" style="text;html=1;strokeColor=none;fillColor=none;spacingLeft=4;spacingRight=4;whiteSpace=wrap;overflow=hidden;rotatable=0;points=[[0,0.5],[1,0.5]];portConstraint=eastwest;" parent="eXmw_8-DnYwRp7ZnmwKu-89" vertex="1">
          <mxGeometry y="234" width="187.61" height="26" as="geometry" />
        </mxCell>
        <mxCell id="eXmw_8-DnYwRp7ZnmwKu-102" value="+ setters(): void" style="text;html=1;strokeColor=none;fillColor=none;spacingLeft=4;spacingRight=4;whiteSpace=wrap;overflow=hidden;rotatable=0;points=[[0,0.5],[1,0.5]];portConstraint=eastwest;" parent="eXmw_8-DnYwRp7ZnmwKu-89" vertex="1">
          <mxGeometry y="260" width="187.61" height="26" as="geometry" />
        </mxCell>
        <mxCell id="eXmw_8-DnYwRp7ZnmwKu-103" value="" style="endArrow=none;html=1;entryX=1;entryY=0.085;entryDx=0;entryDy=0;entryPerimeter=0;" parent="eXmw_8-DnYwRp7ZnmwKu-89" target="eXmw_8-DnYwRp7ZnmwKu-101" edge="1">
          <mxGeometry width="50" height="50" relative="1" as="geometry">
            <mxPoint x="0.6100000000000136" y="236" as="sourcePoint" />
            <mxPoint x="-32.389999999999986" y="210" as="targetPoint" />
          </mxGeometry>
        </mxCell>
        <mxCell id="eXmw_8-DnYwRp7ZnmwKu-104" value="Use" style="endArrow=open;endSize=12;dashed=1;html=1;entryX=0.525;entryY=1.177;entryDx=0;entryDy=0;entryPerimeter=0;" parent="1" target="eXmw_8-DnYwRp7ZnmwKu-102" edge="1">
          <mxGeometry width="160" relative="1" as="geometry">
            <mxPoint x="870" y="470" as="sourcePoint" />
            <mxPoint x="680" y="320" as="targetPoint" />
          </mxGeometry>
        </mxCell>
      </root>
    </mxGraphModel>
  </diagram>
</mxfile>
